PathFileType	4	(X/Y/Z)	/home/abdul/Desktop/myosuite/custom_workspace/IK/output/S5_12_3.trc
DataRate	CameraRate	NumFrames	NumMarkers	Units	OrigDataRate	OrigDataStartFrame	OrigNumFrames
200.0	200.0	28	3	mm	200.0	1	1350
Frame#	Time	V_Shoulder			V_Elbow			V_Wrist		
		X1	Y1	Z1	X2	Y2	Z2	X3	Y3	Z3

1	0.0	-11.020286115319502	727.3711022717661	233.76931892599632	-148.684092982391	556.247058925368	10.629711772634332	-118.58705657215148	311.55349811371497	28.103040936939905
2	0.005	-11.032812357913224	727.360983928768	233.7270949668874	-148.65712286405733	556.2433798628239	10.595961844448126	-118.59298894235381	311.55078213341903	28.047689889344326
3	0.01	-11.045117633866582	727.3496211826678	233.68547175901062	-148.6300273565074	556.2387374672965	10.562236680445414	-118.60095299104788	311.54605583212543	27.987661418980494
4	0.015	-11.05716136965458	727.3369812573768	233.64457232238783	-148.60290928079624	556.2331172153874	10.5286597138347	-118.61100289498057	311.5392479277101	27.923021156582863
5	0.02	-11.068902300710434	727.3230340549726	233.60452132385464	-148.57587719836957	556.2265082187305	10.495360431838867	-118.62318613281778	311.5302923935648	27.853859024910903
6	0.025	-11.08029855735333	727.3077523739101	233.56544476525963	-148.54904532264362	556.2189034400317	10.462474266175334	-118.6375429078452	311.51912899393153	27.780290147858782
7	0.03	-11.091307752524267	727.2911121251218	233.52746966449732	-148.522533408134	556.2102999027766	10.430142463117322	-118.65410556841007	311.50570382264056	27.702455704409683
8	0.035	-11.101887070953623	727.2730925450605	233.4907237305922	-148.49646661665125	556.2006988934511	10.398511932959293	-118.67289802807454	311.4899698433369	27.62052372164962
9	0.04	-11.111993359384948	727.2536764047255	233.455335034061	-148.4709753601464	556.1901061551091	10.367735078774405	-118.69393518752156	311.4718874291844	27.534689801086294
10	0.045	-11.121583217483545	727.2328502137121	233.42143167377978	-148.44619511986096	556.1785320711119	10.337969604419616	-118.71722236032024	311.4514248999534	27.44517777257689
11	0.05	-11.130613089064347	727.210604418322	233.38914144157616	-148.4222662415104	556.1659918378612	10.309378301814766	-118.74275470471524	311.4285590543115	27.352240270254434
12	0.055	-11.139039353282323	727.1869335927713	233.35859148575196	-148.39933370631098	556.152505625347	10.282128817595227	-118.770516663658	311.40327569506303	27.25615922495686
13	0.06	-11.146818415438785	727.161836622552	233.32990797472598	-148.3775468777419	556.1380987243374	10.256393399313467	-118.80048141534274	311.3755701450068	27.157246267805043
14	0.065	-11.153906797069334	727.1353168790047	233.30321576196036	-148.35705922402505	556.1228016790492	10.232348621442801	-118.83261033654871	311.34544775102177	27.0558430397479
15	0.07	-11.16026122499276	727.1073823841871	233.2786380533057	-148.3380280163945	556.1066504041539	10.210175091516351	-118.8668524811214	311.312924373927	26.952321402092494
16	0.075	-11.165838719015206	727.078045965136	233.25629607786914	-148.32061400332546	556.0896862849963	10.190057136815572	-118.90314407594863	311.2780268616183	26.847083543266756
17	0.08	-11.17059667800001	727.047325396652	233.23630876347147	-148.30498106099037	556.0719562599292	10.172182472105241	-118.94140803680295	311.24079350293607	26.740561977320546
18	0.085	-11.174492964030852	727.0152435317618	233.2187924177224	-148.291295820313	556.0535128837021	10.156741848995136	-118.98155350642841	311.2012744596924	26.633219429958224
19	0.09	-11.177485984413446	726.9818284190457	233.2038604156993	-148.27972727109582	556.0344143708814	10.143928687592352	-119.02347541724905	311.1595321742602	26.525548608212155
20	0.095	-11.179534771279629	726.9471134060556	233.19162289517223	-148.27044634380536	556.0147246183244	10.133938691191906	-119.06705408106536	311.11564175011574	26.418071850211156
21	0.1	-11.180599058576556	726.9111372280863	233.18218646027177	-148.26362546970805	555.9945132057766	10.126969444836464	-119.11215480808622	311.06969130272563	26.31134065187073
22	0.105	-11.180639356242866	726.8739440816031	233.17565389444783	-148.25943812016274	555.9738553737302	10.123219998658294	-119.15862755761466	311.02178227818126	26.20593506773222
23	0.11	-11.17961702139315	726.8355836816809	233.17212388351996	-148.2580583259873	555.95283197773	10.122890436997386	-119.20630662266854	310.9720297370037	26.102462983605292
24	0.115	-11.17749432635142	726.7961113028485	233.17169074957027	-148.25966017793135	555.9315294183966	10.126181434368373	-119.25501035076891	310.9205626005818	26.001559259121088
25	0.12	-11.174234523393679	726.7555878027912	233.17444419637877	-148.26441730940064	555.9100395465023	10.133293799425408	-119.304540903072	310.86752385775094	25.903884738781777
26	0.125	-11.169801906078908	726.7140796284102	233.18046906705126	-148.27250236269197	555.8884595425244	10.144428008147438	-119.35468405395378	310.8130707290866	25.810125130594017
27	0.13	-11.164161867066662	726.6716588037983	233.18984511443878	-148.28408644011066	555.8668917701824	10.159783727536222	-119.40520903307925	310.7573747865582	25.720989751898266
28	0.135	-11.157280952338178	726.6284028997464	233.20264678489653	-148.29933854145352	555.8454436035632	10.17955933118524	-119.45586841190217	310.70062202628367	25.637210142551318
